<svg width="20" height="24" viewBox="0 0 20 24" fill="none" xmlns="http://www.w3.org/2000/svg"><path d="M9.022 22.944c.037.389.327.706.728.706.401 0 .695-.317.728-.706.181-1.925 2.5-3.78 4.409-5.307.674-.54 1.296-1.037 1.757-1.484a9.325 9.325 0 002.856-6.69C19.504 4.24 15.136 0 9.75 0m-.728 22.944l.694-.066.033-.003h.001l.268-.025v-.001m-.996.095c-.181-1.923-2.5-3.778-4.41-5.308-.675-.54-1.298-1.039-1.76-1.486C1.026 14.374 0 11.967 0 9.464 0 4.24 4.364.004 9.75 0m-.728 22.944l.69-.066.033-.003h.005l.268-.026m0 0a4.04 4.04 0 00-.268-1.095m.268 1.095a.188.188 0 00-.06-.111.305.305 0 00-.208-.088.3.3 0 00-.206.086.205.205 0 00-.062.122v-.008h0c.036-.38.131-.747.268-1.096m0 0c.184-.47.444-.91.736-1.315.512-.708 1.168-1.37 1.837-1.97a44.523 44.523 0 011.933-1.608l.09-.072c.651-.521 1.201-.966 1.601-1.354A8.326 8.326 0 0018.5 9.464v-.001C18.503 4.82 14.612 1 9.75 1c0 0 0 0 0 0V0m0 21.754a6.004 6.004 0 00-.736-1.314c-.512-.707-1.168-1.369-1.837-1.97a46.26 46.26 0 00-1.934-1.61l-.09-.072c-.652-.522-1.203-.967-1.604-1.356M9.75 0v1C4.888 1.004 1 4.82 1 9.464c0 2.228.912 4.377 2.549 5.968m0 0s0 0 0 0l-.696.717.697-.716h-.001z" stroke="#0F2C2D" stroke-width="2"/><path d="M12.175 9.46c0 1.253-1.058 2.321-2.425 2.321-1.366 0-2.42-1.067-2.42-2.321 0-1.254 1.054-2.321 2.42-2.321 1.367 0 2.425 1.068 2.425 2.321z" stroke="#0F2C2D" stroke-width="2"/></svg>