<svg width="27" height="24" viewBox="0 0 27 24" fill="none" xmlns="http://www.w3.org/2000/svg"><path d="M13.357 23l-.068-.045a59.306 59.306 0 01-5.536-4.203c-3.784-3.254-5.945-6.074-6.425-8.376A7.172 7.172 0 011 8.158a7.3 7.3 0 011.312-4.112A7.133 7.133 0 015.701 1.43a7.02 7.02 0 014.254-.186 7.108 7.108 0 013.597 2.312 7.078 7.078 0 014.15-2.345 7.014 7.014 0 014.678.833 7.199 7.199 0 012.664 2.685A7.337 7.337 0 0126 8.414a7.212 7.212 0 01-.375 2.223c-.526 2.281-2.75 5.052-6.583 8.223a58.456 58.456 0 01-5.615 4.095l-.07.045zM8.117 1.264A6.808 6.808 0 003.292 3.28a7.015 7.015 0 00-1.714 7.026c1.076 5.154 10.86 11.768 11.781 12.378.935-.592 10.839-6.996 12.016-12.122a7.04 7.04 0 00-.087-4.718 6.912 6.912 0 00-3.038-3.571 6.761 6.761 0 00-4.575-.786 6.827 6.827 0 00-4.019 2.356l-.101.121-.1-.121a6.88 6.88 0 00-2.35-1.889 6.778 6.778 0 00-2.92-.691h-.068z" fill="#fff" stroke="#fff"/></svg>