<svg width="22" height="22" viewBox="0 0 22 22" fill="none" xmlns="http://www.w3.org/2000/svg"><path d="M11 16.519A5.525 5.525 0 015.481 11 5.525 5.525 0 0111 5.481 5.525 5.525 0 0116.519 11 5.525 5.525 0 0111 16.519zm0-9.844A4.33 4.33 0 006.675 11 4.33 4.33 0 0011 15.325 4.33 4.33 0 0015.325 11 4.33 4.33 0 0011 6.675zm.597-4.028V.597a.597.597 0 00-1.194 0v2.05a.597.597 0 001.194 0zm0 18.756v-2.05a.597.597 0 00-1.194 0v2.05a.597.597 0 001.194 0zM3.244 11a.597.597 0 00-.597-.597H.597a.597.597 0 000 1.194h2.05c.33 0 .597-.268.597-.597zM22 11a.597.597 0 00-.597-.597h-2.05a.597.597 0 000 1.194h2.05c.33 0 .597-.268.597-.597zM3.978 18.865l1.45-1.45a.596.596 0 10-.843-.843l-1.45 1.45a.596.596 0 10.843.843zM17.415 5.428l1.45-1.45a.596.596 0 10-.843-.843l-1.45 1.45a.597.597 0 00.843.843zm-11.987 0a.596.596 0 000-.843l-1.45-1.45a.596.596 0 10-.843.843l1.45 1.45a.594.594 0 00.843 0zm13.437 13.437a.596.596 0 000-.843l-1.45-1.45a.597.597 0 00-.843.843l1.45 1.45a.594.594 0 00.843 0z" fill="#65BA7F"/></svg>