<svg width="25" height="18" viewBox="0 0 25 18" fill="none" xmlns="http://www.w3.org/2000/svg"><path d="M12.403 1.01a.44.44 0 00-.318.28c-.466 1.174-.074 1.816-1.866 3.646-.6.62-.967 1.49-.967 2.435 0 1.864 1.448 3.396 3.248 3.396 1.8 0 3.248-1.532 3.248-3.396 0-.944-.367-1.815-.967-2.435-1.792-1.83-1.4-2.472-1.866-3.647a.444.444 0 00-.512-.278zm.097 2.075c.221.655.624 1.435 1.645 2.477.44.455.719 1.096.719 1.81 0 1.405-1.064 2.505-2.364 2.505-1.3 0-2.364-1.1-2.364-2.506 0-.713.28-1.354.72-1.809 1.02-1.042 1.423-1.823 1.644-2.477zM4.386 6.703a.441.441 0 00-.317.279c-.5 1.252-.09 1.966-2.032 3.939A3.707 3.707 0 001 13.509c0 1.988 1.559 3.62 3.483 3.62 1.924 0 3.47-1.632 3.47-3.62a3.707 3.707 0 00-1.037-2.588C4.974 8.948 5.384 8.234 4.884 6.98a.444.444 0 00-.498-.278zm16.048 0a.441.441 0 00-.318.279c-.5 1.252-.09 1.966-2.032 3.939a3.708 3.708 0 00-1.037 2.588c0 1.988 1.546 3.62 3.47 3.62 1.924 0 3.483-1.632 3.483-3.62a3.707 3.707 0 00-1.037-2.588c-1.942-1.973-1.531-2.687-2.032-3.94a.445.445 0 00-.497-.278zm-15.95 2.06c.224.726.623 1.593 1.796 2.784.482.495.788 1.188.788 1.962 0 1.527-1.158 2.728-2.585 2.728s-2.598-1.201-2.598-2.728c0-.774.306-1.467.787-1.962 1.176-1.194 1.587-2.058 1.811-2.784zm16.033 0c.224.726.635 1.59 1.81 2.784.482.495.788 1.188.788 1.962 0 1.527-1.171 2.728-2.598 2.728-1.427 0-2.585-1.201-2.585-2.728 0-.774.306-1.467.788-1.962 1.173-1.191 1.572-2.058 1.797-2.784z" fill="#65BA7F" stroke="#65BA7F" stroke-width=".4"/></svg>