<svg width="20" height="24" viewBox="0 0 20 24" fill="none" xmlns="http://www.w3.org/2000/svg"><path d="M12.937 9.89l-4.52 3.65-1.854-2.173a.29.29 0 00-.435.376l2.028 2.376.058.058h.348l4.722-3.824a.3.3 0 00-.158-.529.299.299 0 00-.218.065h.029z" fill="#65BA7F" stroke="#65BA7F" stroke-width=".7"/><path d="M9.981 1.024a.29.29 0 00-.232 0L2.97 3.864A3.187 3.187 0 001 6.817v7.243c0 4.84 3.853 8.895 8.604 9.04h.261a8.865 8.865 0 008.865-8.836V6.818a3.187 3.187 0 00-1.97-2.955L9.981 1.024zm8.17 5.794v7.446a8.284 8.284 0 01-8.547 8.257c-4.432-.145-8.025-3.94-8.025-8.46V6.818a2.607 2.607 0 011.594-2.404l6.692-2.81 6.692 2.78a2.608 2.608 0 011.594 2.434z" fill="#65BA7F" stroke="#65BA7F" stroke-width=".7"/></svg>