<svg width="20" height="23" viewBox="0 0 20 23" fill="none" xmlns="http://www.w3.org/2000/svg"><path d="M19.657 14.694l-2.009.525-2.123-1.233 2.26-.594-.32-1.232-3.492.936-2.695-1.553 2.695-1.552 3.493.936.32-1.233-2.26-.594 2.122-1.233 2.01.526L20 7.16l-1.644-.434.434-1.644-1.233-.342-.548 2.009-2.123 1.233.616-2.26-1.255-.32-.914 3.493-2.694 1.53V7.341l2.557-2.557-.89-.913-1.667 1.644V3.073l1.462-1.461-.891-.914L10 1.908 8.79.699l-.89.914 1.46 1.46v2.444L7.695 3.872l-.89.913L9.36 7.342v3.083l-2.694-1.53-.914-3.493-1.255.32.616 2.26L2.99 6.749l-.548-2.01-1.233.343.434 1.644L0 7.16l.342 1.233 2.01-.526L4.475 9.1l-2.26.594.32 1.233 3.492-.936 2.694 1.552-2.694 1.553-3.493-.936-.32 1.232 2.26.594-2.122 1.233-2.01-.525L0 15.927l1.644.434-.434 1.643 1.233.343.548-2.01 2.123-1.232-.616 2.26 1.255.32.914-3.493 2.694-1.53v3.082l-2.557 2.557.89.914 1.667-1.644v2.443L7.9 21.474l.89.914 1.21-1.21 1.21 1.21.89-.913-1.46-1.461V17.57l1.666 1.643.89-.913-2.557-2.557v-3.082l2.694 1.53.914 3.493 1.255-.32-.616-2.26 2.123 1.233.548 2.009 1.233-.343-.434-1.643L20 15.927l-.343-1.233z" fill="#65BA7F"/></svg>