<svg width="344" height="339" viewBox="0 0 344 339" fill="none" xmlns="http://www.w3.org/2000/svg">
<path d="M172.925 0.638794L167.1 18.5688H148.247L163.499 29.65L157.673 47.58L172.925 36.4988L188.178 47.58L182.352 29.65L197.604 18.5688H178.751L172.925 0.638794Z" fill="#CAE8D9"/>
<path d="M247.477 18.0981L241.652 36.0282H222.799L238.051 47.1096L232.225 65.0396L247.477 53.9582L262.73 65.0396L256.904 47.1096L272.156 36.0282H253.303L247.477 18.0981Z" fill="#CAE8D9"/>
<path d="M285.348 118.746L300.6 107.664L315.853 118.746L310.027 100.816L325.279 89.7343H306.426L300.6 71.8043L294.775 89.7343H275.922L291.174 100.816L285.348 118.746Z" fill="#CAE8D9"/>
<path d="M344 163.737H325.147L319.321 145.807L313.495 163.737H294.643L309.895 174.818L304.069 192.748L319.321 181.667L334.573 192.748L328.748 174.818L344 163.737Z" fill="#CAE8D9"/>
<path d="M306.426 236.671L300.6 218.741L294.775 236.671H275.922L291.174 247.753L285.348 265.683L300.6 254.601L315.853 265.683L310.027 247.753L325.279 236.671H306.426Z" fill="#CAE8D9"/>
<path d="M253.303 291.04L247.477 273.11L241.652 291.04H222.799L238.051 302.122L232.225 320.052L247.477 308.97L262.73 320.052L256.904 302.122L272.156 291.04H253.303Z" fill="#CAE8D9"/>
<path d="M178.751 309.85L172.925 291.92L167.1 309.85H148.247L163.499 320.932L157.673 338.862L172.925 327.78L188.178 338.862L182.352 320.932L197.604 309.85H178.751Z" fill="#CAE8D9"/>
<path d="M105.094 291.04L99.2682 273.11L93.4426 291.04H74.5898L89.8419 302.122L84.0162 320.052L99.2682 308.97L114.52 320.052L108.695 302.122L123.947 291.04H105.094Z" fill="#CAE8D9"/>
<path d="M50.7594 236.671L44.9335 218.741L39.1079 236.671H20.2549L35.5071 247.753L29.6815 265.683L44.9335 254.601L60.1858 265.683L54.3599 247.753L69.6122 236.671H50.7594Z" fill="#CAE8D9"/>
<path d="M25.3271 181.667L40.5793 192.748L34.7534 174.818L50.0057 163.737H31.153L25.3271 145.807L19.5012 163.737H0.648438L15.9007 174.818L10.0748 192.748L25.3271 181.667Z" fill="#CAE8D9"/>
<path d="M44.9335 71.8043L39.1079 89.7343H20.2549L35.5071 100.816L29.6815 118.746L44.9335 107.664L60.1858 118.746L54.3599 100.816L69.6122 89.7343H50.7594L44.9335 71.8043Z" fill="#CAE8D9"/>
<path d="M99.2682 18.0981L93.4426 36.0282H74.5898L89.8419 47.1096L84.0162 65.0396L99.2682 53.9582L114.52 65.0396L108.695 47.1096L123.947 36.0282H105.094L99.2682 18.0981Z" fill="#CAE8D9"/>
</svg>
