<svg width="98" height="82" viewBox="0 0 98 82" fill="none" xmlns="http://www.w3.org/2000/svg">
<path d="M96.2966 46H48.7034C47.765 46 47 46.7502 47 47.6705V56.1529C47 56.8631 47.4488 57.4733 48.0914 57.7133C48.1832 59.4939 48.428 61.2644 48.6932 62.7548C48.6932 62.7848 48.7034 62.8248 48.7034 62.8548C49.4888 67.136 50.8658 71.4673 52.4366 74.8182C52.2938 75.0683 52.202 75.3484 52.202 75.6585V79.3295C52.202 80.2498 52.967 81 53.9054 81H91.0946C92.033 81 92.798 80.2498 92.798 79.3295V75.6585C92.798 75.3484 92.7164 75.0683 92.5634 74.8182C94.1342 71.4673 95.5112 67.136 96.2966 62.8548C96.3068 62.8248 96.3068 62.7848 96.3068 62.7548C96.572 61.2644 96.827 59.5039 96.9086 57.7133C97.541 57.4733 98 56.8631 98 56.1529V47.6705C98 46.7502 97.235 46 96.2966 46ZM49.1216 48.0906H95.8682V55.7428H49.1216V48.0906ZM90.6764 78.9194H54.3236V76.0886H90.6662V78.9194H90.6764ZM94.1852 62.5847C93.4304 66.6559 92.0942 70.8271 90.6152 73.988H54.3848C52.9058 70.8271 51.5696 66.6559 50.8148 62.5847C50.8148 62.5547 50.8046 62.5147 50.8046 62.4847C50.4986 60.8142 50.3048 59.2538 50.2334 57.8234H94.7768C94.6952 59.2438 94.5014 60.8142 94.2056 62.4847C94.1954 62.5247 94.1852 62.5547 94.1852 62.5847Z" fill="#65BA7F"/>
<path d="M42.2026 38.5808C40.4498 37.8857 36.8487 36.8747 32.3234 37.9015C29.2003 38.6124 26.8739 40.3342 25.2168 42.1666L25.647 41.4084C25.647 41.3926 25.6629 41.3926 25.6629 41.3768C25.9179 40.8713 26.2366 40.3816 26.5871 39.8761L26.6349 39.8129C26.6349 39.7971 26.6508 39.7813 26.6508 39.7813C26.8421 39.4496 27.0811 39.1337 27.3201 38.8019C27.4475 38.6282 27.575 38.4386 27.7025 38.2648C27.814 38.1227 27.9096 37.9963 28.0212 37.8541C28.2921 37.4908 28.5629 37.1591 28.8338 36.8273C28.9932 36.6378 29.1525 36.4482 29.3118 36.2744C29.5349 36.0059 29.7421 35.7531 29.9651 35.532L29.9811 35.5162C30.1723 35.295 30.3635 35.0897 30.5547 34.8843C31.208 35.374 32.5943 36.2428 34.2833 36.2428C34.3948 36.2428 34.5223 36.2428 34.6338 36.227C36.1157 36.1165 37.2948 35.3424 38.0119 34.7264C39.7487 33.9365 41.358 32.4832 42.346 30.714C44.1146 27.7916 44.1306 25.1851 43.8916 22.7998C43.8597 22.5154 43.6844 22.2627 43.4135 22.1521C43.2861 22.1047 43.1586 22.0889 43.0311 22.1047C43.0311 22.0257 43.0311 21.9467 43.0311 21.8835C42.9993 21.4728 42.6646 21.1411 42.2344 21.1569C42.1548 21.1569 42.0591 21.1569 41.9795 21.1727C41.9954 21.0305 41.9795 20.8726 41.9157 20.7304C41.7883 20.4618 41.5333 20.2881 41.2465 20.2723C38.8245 20.1459 36.1635 20.2723 33.2635 22.1363C31.3195 23.2895 29.7739 25.1851 29.1525 27.1281C28.6267 27.9179 28.0212 29.1975 28.1327 30.6508C28.2283 31.9619 28.8976 33.0519 29.4871 33.7627C29.264 33.9997 29.0569 34.2366 28.8338 34.4736C28.5948 34.7264 28.3558 35.0107 28.1327 35.2792C27.9893 35.453 27.83 35.6426 27.6706 35.8163L27.6547 35.8321C27.3679 36.1797 27.0811 36.543 26.8102 36.9063C26.6986 37.0485 26.5871 37.1907 26.4915 37.3328C26.4756 37.3486 26.4756 37.3644 26.4596 37.3644C26.3322 37.5382 26.2206 37.7119 26.0931 37.8857C25.8382 38.2332 25.5833 38.5966 25.3442 38.9757L25.3124 39.0231C24.9618 39.5444 24.6113 40.0815 24.3245 40.6502L23.8624 41.4558C23.8464 41.4716 23.8464 41.4874 23.8305 41.5032L23.2887 42.6406V25.2799C24.3723 25.1851 26.9058 24.7586 28.6426 22.8945C29.9811 21.457 30.3794 19.6246 30.491 18.3767C31.447 16.0387 31.6382 13.1163 30.9053 10.494C29.8536 6.00775 27.3838 3.43287 24.8662 1.3319C24.6431 1.14234 24.3404 1.09495 24.0695 1.20552C23.8305 1.3003 23.6552 1.48987 23.6074 1.72682C23.4321 1.53726 23.2728 1.36349 23.0975 1.20552C22.7948 0.921181 22.3168 0.936976 22.014 1.22132C21.8228 1.39508 21.6475 1.61624 21.4563 1.8374V1.77421C21.4244 1.48986 21.2332 1.23712 20.9624 1.14233C20.6915 1.03176 20.3887 1.07915 20.1657 1.26871C17.6481 3.36969 15.1783 5.92877 14.1107 10.4151C13.298 13.3059 13.6167 16.5916 14.8437 19.0401C15.0827 20.2723 15.6722 22.0573 17.1541 23.3684C18.6041 24.648 20.4525 25.0587 21.7113 25.1693V42.6248L21.1695 41.4874C21.1695 41.4716 21.1536 41.4558 21.1376 41.44L20.6755 40.6344C20.3728 40.0657 20.0222 39.5286 19.6876 39.0073L19.6558 38.9599C19.4327 38.565 19.1618 38.2016 18.9069 37.8699C18.7794 37.6962 18.6519 37.5224 18.5404 37.3486C18.5244 37.3328 18.5244 37.317 18.5085 37.317C18.397 37.1749 18.2854 37.0327 18.1898 36.8905C17.9189 36.5272 17.6321 36.1639 17.3453 35.8163L17.3294 35.8005C17.17 35.6268 17.0266 35.4372 16.8673 35.2634C16.6442 34.9949 16.4052 34.7106 16.1662 34.4578C15.9431 34.2208 15.736 33.9839 15.5129 33.7469C16.1024 33.0203 16.7717 31.9461 16.8673 30.635C16.9788 29.1817 16.3733 27.9179 15.8475 27.1123C15.2101 25.1851 13.6805 23.2737 11.7365 22.1205C8.82055 20.2565 6.17548 20.1301 3.7535 20.2565C3.46668 20.2723 3.21174 20.446 3.08426 20.7146C3.02053 20.8568 3.00459 20.9989 3.02053 21.1569C2.94086 21.1569 2.84525 21.1411 2.76558 21.1411C2.35129 21.1253 1.98481 21.457 1.96888 21.8678C1.96888 21.9467 1.96888 22.0099 1.96888 22.0889C1.8414 22.0731 1.71393 22.0889 1.58646 22.1363C1.31558 22.2469 1.1403 22.4838 1.10843 22.784C0.86942 25.1535 0.885354 27.76 2.65404 30.6982C3.62602 32.4674 5.25131 33.9207 6.98813 34.7106C7.7211 35.3266 8.90022 36.1007 10.3662 36.2113C10.4777 36.227 10.6052 36.227 10.7167 36.227C12.3898 36.227 13.792 35.374 14.4453 34.8685C14.6365 35.0739 14.8277 35.2792 15.0189 35.5004L15.0349 35.5162C15.242 35.7373 15.4651 35.9901 15.6882 36.2586C15.8475 36.4482 16.0068 36.6378 16.1662 36.8115C16.4371 37.1433 16.692 37.475 16.9788 37.8383C17.0904 37.9805 17.186 38.1069 17.2975 38.249C17.425 38.4228 17.5525 38.6124 17.6799 38.7861C17.9189 39.1179 18.1579 39.4338 18.3492 39.7655C18.3492 39.7813 18.3651 39.7971 18.3651 39.7971L18.4129 39.8603C18.7475 40.3816 19.0662 40.8555 19.3371 41.361C19.3371 41.3768 19.353 41.3768 19.353 41.3926L19.7832 42.1509C18.1101 40.3184 15.7997 38.5966 12.6766 37.8857C8.15132 36.8589 4.53427 37.8699 2.79745 38.565C2.41503 38.7229 2.20789 39.1495 2.35129 39.5444C2.95679 41.2978 4.51834 44.6309 8.26286 47.348C10.9557 49.291 13.9354 49.8597 16.5167 49.8597C18.6997 49.8597 20.5799 49.449 21.7591 49.1172V51.1708H9.23484C8.31066 51.1708 7.57769 51.9133 7.57769 52.8295V72.8598C7.57769 73.6023 8.07165 74.2184 8.74088 74.4395C9.04363 76.0508 10.2546 77.3461 11.848 77.7884V79.7363C11.848 80.4471 12.342 81 12.9634 81H32.1481C32.7855 81 33.2635 80.4471 33.2635 79.7363V77.7884C34.841 77.3461 36.0679 76.035 36.3707 74.4395C37.0399 74.2184 37.5179 73.6023 37.5179 72.8598V52.8295C37.5179 51.9133 36.769 51.1708 35.8608 51.1708H23.3365V49.1172C24.5157 49.449 26.4118 49.8597 28.5789 49.8597C31.1602 49.8597 34.1399 49.291 36.8328 47.348C40.5773 44.6467 42.1388 41.2978 42.7443 39.5444C42.7921 39.1495 42.585 38.7229 42.2026 38.5808ZM30.4432 27.9179C30.9212 28.4392 31.5586 29.3238 31.6382 30.3664C31.686 31.0773 31.5107 31.8039 31.0805 32.5622C30.9849 32.736 30.9531 32.9413 31.0009 33.1309C30.5069 32.6254 29.7421 31.6776 29.6465 30.4928C29.5668 29.466 30.0448 28.5024 30.4432 27.9179ZM41.3899 22.7998C41.0712 25.3115 39.0795 29.5292 36.53 31.5512C35.8608 31.2984 35.0641 31.1247 34.2196 31.1879C33.8531 31.2195 33.5025 31.2826 33.136 31.3932C33.1998 31.0141 33.2157 30.635 33.1838 30.2559C33.1201 29.466 32.8652 28.7552 32.5305 28.1707C34.5223 25.5326 38.9201 23.2895 41.3899 22.7998ZM34.4904 34.6632C33.2476 34.7579 32.1322 34.1103 31.5745 33.6996C31.7976 33.7469 32.0366 33.7154 32.2278 33.5732C32.9289 33.0677 33.6459 32.7833 34.347 32.736C35.4146 32.657 36.3866 33.1309 36.9921 33.51C36.4503 33.9839 35.558 34.5842 34.4904 34.6632ZM40.9597 29.9083C40.9597 29.9241 40.9438 29.9241 40.9438 29.9399C40.3542 31.0141 39.4619 31.9619 38.458 32.657C38.3465 32.5622 38.1871 32.4516 38.0119 32.3252C39.9877 30.5244 41.5652 27.7284 42.3778 25.2641C42.33 26.8122 41.9476 28.297 40.9597 29.9083ZM34.0283 23.4474C34.0443 23.4474 34.0443 23.4316 34.0602 23.4316C35.8448 22.2785 37.5179 21.8677 39.2866 21.7888C36.6415 22.7524 33.4706 24.6638 31.6064 26.8595C31.4311 26.67 31.2717 26.512 31.1443 26.3856C31.7816 25.2325 32.8173 24.1583 34.0283 23.4474ZM11.7843 31.3774C11.4337 31.2668 11.0673 31.2037 10.7008 31.1721C9.85627 31.1089 9.05956 31.2826 8.39033 31.5354C5.84087 29.5134 3.83317 25.2957 3.53042 22.784C6.00021 23.2895 10.398 25.5168 12.3739 28.1549C12.0392 28.7394 11.7843 29.4502 11.7206 30.2401C11.7046 30.6192 11.7206 30.9983 11.7843 31.3774ZM13.2821 30.3664C13.3618 29.308 13.9832 28.4392 14.4772 27.9179C14.8755 28.5024 15.3535 29.466 15.2739 30.5086C15.1783 31.6776 14.4134 32.6412 13.9195 33.1467C13.9673 32.9571 13.9513 32.7517 13.8398 32.578C13.4255 31.8197 13.2343 31.0773 13.2821 30.3664ZM10.8601 23.4316C10.8761 23.4316 10.8761 23.4474 10.892 23.4474C12.103 24.1583 13.1387 25.2325 13.792 26.3856C13.6645 26.4962 13.5052 26.6542 13.3299 26.8595C11.4656 24.6638 8.29472 22.7524 5.64966 21.7888C7.41835 21.8677 9.0755 22.2943 10.8601 23.4316ZM3.97658 29.9399C3.97658 29.9241 3.96064 29.9241 3.96064 29.9083C2.98866 28.297 2.60624 26.8122 2.52657 25.2641C3.33921 27.7126 4.91669 30.5086 6.89252 32.3252C6.71725 32.4516 6.5579 32.5622 6.44637 32.657C5.45845 31.9619 4.56614 31.0141 3.97658 29.9399ZM10.4299 34.6632C9.36231 34.5842 8.47 33.9839 7.92824 33.51C8.53374 33.1309 9.50572 32.657 10.5733 32.736C11.2744 32.7833 11.9914 33.0677 12.6925 33.5732C12.8838 33.7154 13.1228 33.7469 13.3458 33.6996C12.7881 34.1103 11.6728 34.7579 10.4299 34.6632ZM13.314 79.4361V77.9464H31.6223V79.4361H13.314ZM31.9569 76.3983H12.9634C11.7206 76.3983 10.653 75.6085 10.2865 74.5027H34.6498C34.2674 75.5927 33.1998 76.3983 31.9569 76.3983ZM35.8767 52.8295V72.8598C35.8767 72.9072 35.8289 72.9546 35.7811 72.9546H9.15517C9.10737 72.9546 9.05956 72.9072 9.05956 72.8598V52.8295C9.05956 52.7821 9.10737 52.7347 9.15517 52.7347H35.7811C35.8289 52.7347 35.8767 52.7663 35.8767 52.8295ZM24.93 3.49606C27.0333 5.45486 28.5789 7.58743 29.3437 10.8574C29.3437 10.8732 29.3437 10.8732 29.3596 10.889C29.8536 12.6424 29.8695 14.5222 29.503 16.2283C29.2481 16.2441 28.7541 16.2757 28.1486 16.3863C28.5311 12.1369 26.9217 6.90817 24.93 3.60664V3.49606ZM22.5398 2.92737C23.719 4.31749 24.8981 6.70281 25.6789 9.27769C26.5234 12.0579 26.7942 14.7276 26.4915 16.8444C25.5673 17.2077 24.5953 17.7606 23.7986 18.6136C23.3684 19.0875 23.0179 19.6088 22.731 20.2091C22.3805 19.6088 21.9503 19.0875 21.4404 18.6452C20.5959 17.9028 19.608 17.4446 18.6997 17.1761C17.9667 12.4371 20.4365 5.62863 22.5398 2.92737ZM15.5766 10.8258C15.5766 10.81 15.5766 10.81 15.5926 10.7942C16.3733 7.52425 17.9189 5.39168 20.0222 3.44867L20.07 3.92257C18.2058 7.38208 16.6761 12.7372 17.0904 16.876C16.4371 16.797 15.8953 16.8128 15.6085 16.8286C15.0508 14.9645 15.0189 12.8004 15.5766 10.8258ZM16.2777 18.3767C17.2816 18.4082 19.0821 18.661 20.4047 19.8142C21.1854 20.5092 21.7431 21.4728 22.0777 22.6734C22.1733 23.0209 22.508 23.2579 22.8745 23.2421C23.2409 23.2263 23.5437 22.9577 23.6074 22.5944C23.8146 21.3938 24.2767 20.3986 24.9618 19.6562C26.1409 18.3767 27.9096 17.9501 28.9135 17.808C28.8816 18.7874 28.6267 20.525 27.4475 21.8046C26.0453 23.3211 23.8464 23.637 23.0338 23.7002C22.9382 23.6528 22.8267 23.637 22.7151 23.637H22.6992C22.6514 23.637 22.6036 23.637 22.5558 23.637C22.5239 23.637 22.492 23.6212 22.4602 23.6212C22.4283 23.6212 22.4124 23.6212 22.3805 23.6212C21.3926 23.6054 19.5124 23.3842 18.142 22.1679C16.8514 21.0621 16.4211 19.3561 16.2777 18.3767ZM9.09143 46.0843C6.15955 43.9517 4.70954 41.4242 4.00844 39.7497C5.74526 39.181 8.67714 38.5966 12.2464 39.4022C17.7277 40.6344 20.4684 45.484 21.4085 47.5692C19.1777 48.2484 13.6327 49.37 9.09143 46.0843ZM35.8289 46.0843C31.2877 49.37 25.7426 48.2326 23.5118 47.5692C24.4519 45.484 27.1926 40.6344 32.6739 39.4022C36.2432 38.5966 39.1751 39.181 40.9119 39.7497C40.2108 41.4242 38.7608 43.9675 35.8289 46.0843Z" fill="#65BA7F" stroke="#65BA7F" stroke-width="0.4"/>
</svg>
