<svg width="66" height="66" viewBox="0 0 66 66" fill="none" xmlns="http://www.w3.org/2000/svg">
<path d="M32.3898 64.7704L32.7117 65L33.0337 64.7704C53.6783 50.0611 65.3896 32.2165 64.361 17.0354C63.9223 10.5721 60.9628 5.44157 56.2413 2.96049C53.7654 1.66014 51.2179 1 48.6704 1C40.3713 1 34.3702 7.80746 32.7117 9.9149C31.0525 7.8082 25.0514 1 16.7523 1C14.2041 1 11.6573 1.65941 9.1806 2.96049C4.45843 5.44157 1.4996 10.5721 1.06246 17.0362C0.0345821 32.2173 11.7451 50.0618 32.3898 64.7704ZM2.16787 17.1108C2.57916 11.0388 5.32238 6.23906 9.69528 3.94111C12.011 2.72494 14.3857 2.10762 16.7523 2.10762C25.7809 2.10762 32.1956 11.0631 32.2591 11.154L32.7117 11.7964L33.1644 11.154C33.2279 11.0639 39.6425 2.10762 48.6704 2.10762C51.0362 2.10762 53.4103 2.7242 55.7259 3.94111C60.0996 6.23906 62.8443 11.0388 63.2548 17.11C63.6292 22.6326 62.5253 42.2627 32.7117 63.6384C2.89816 42.2642 1.79349 22.6341 2.16787 17.1108Z" fill="#65BA7F" stroke="#65BA7F" stroke-width="1.5"/>
<path d="M33.2656 22.6921H32.158V39.8108H33.2656V22.6921Z" fill="#65BA7F" stroke="#65BA7F" stroke-width="1.5"/>
<path d="M33.2656 43.5208H32.158V46.6575H33.2656V43.5208Z" fill="#65BA7F" stroke="#65BA7F" stroke-width="1.5"/>
</svg>
