<svg width="115" height="66" viewBox="0 0 115 66" fill="none" xmlns="http://www.w3.org/2000/svg">
<path d="M64.4456 14.7234C64.1146 14.6188 63.7538 14.7359 63.5508 15.0188C63.4984 15.0912 58.6989 21.7112 52.7997 24.6482C54.374 19.6034 54.446 12.9674 51.0516 4.42266C50.929 4.11484 50.637 3.94297 50.2981 3.91797C49.967 3.92188 49.6727 4.13047 49.5579 4.44141C49.5209 4.54233 46.7898 11.8448 40.8851 21.1229C39.9318 11.5792 33.9731 1.82456 33.698 1.37969C33.5528 1.14375 33.2951 1 33.018 1H33.0172C32.74 1 32.4823 1.14453 32.3371 1.38125C32.0625 1.82759 26.0946 11.6438 25.1755 21.2165C19.233 11.8977 16.4792 4.54263 16.4421 4.44141C16.3273 4.13047 16.033 3.92188 15.7019 3.91797C15.698 3.91797 15.6949 3.91797 15.6917 3.91797C15.3646 3.91797 15.0702 4.11797 14.9484 4.42266C11.554 12.9674 11.626 19.6034 13.2003 24.6482C7.3011 21.7112 2.50155 15.0912 2.44919 15.0188C2.24696 14.7359 1.887 14.6188 1.55438 14.7234C1.22409 14.8305 1 15.1375 1 15.4852C1 28.5146 8.82051 34.3064 14.0653 36.7281H12.0173C9.49835 36.7281 7.4495 38.7781 7.4495 41.2984V60.4297C7.4495 62.95 9.49835 65 12.0173 65H54.053C56.5719 65 58.6208 62.95 58.6208 60.4297V41.2984C58.6208 38.7781 56.5719 36.7281 54.053 36.7281H51.9347C57.1795 34.3064 65 28.5146 65 15.4852C65 15.1375 64.7759 14.8305 64.4456 14.7234ZM33.0195 3.40078C34.7783 6.55352 39.3245 15.4685 39.4104 23.3772C37.5487 26.152 35.4147 29.0568 33 31.9667C30.615 29.0925 28.5023 26.2218 26.6564 23.4763C26.705 15.551 31.262 6.56973 33.0195 3.40078ZM15.7253 6.91484C17.6102 11.3094 22.9517 22.5758 32.3714 33.7125C32.4768 33.8372 32.6155 33.9071 32.7612 33.9495C32.7771 33.9548 32.7924 33.9584 32.8084 33.9628C32.8724 33.9772 32.9343 33.9852 32.9999 33.9837C33.0654 33.9852 33.1274 33.9772 33.1914 33.9628C33.2075 33.9584 33.2226 33.9549 33.2384 33.9495C33.3843 33.9072 33.5232 33.8373 33.6286 33.7125C43.0483 22.5758 48.389 11.3094 50.2747 6.91484C53.0865 14.9914 52.6102 21.1028 50.8433 25.6326C50.7544 25.7569 50.69 25.8972 50.6824 26.0516C47.708 33.1989 41.526 36.2424 40.4464 36.7281H25.5535C24.4753 36.2465 18.2905 33.221 15.3131 26.0819C15.311 25.8966 15.2392 25.7255 15.1219 25.5848C13.3762 21.0625 12.92 14.9676 15.7253 6.91484ZM10.7922 33.0063C5.94488 29.4453 3.22844 24.3734 2.69592 17.9055C4.86868 20.4745 9.10048 24.8608 13.9777 26.7356C16.1702 31.8437 19.8641 35.0337 22.3877 36.7281H18.9159C18.3996 36.6255 14.588 35.7952 10.7922 33.0063ZM57.0217 41.2984V60.4297C57.0217 62.0672 55.6896 63.4 54.053 63.4H12.0173C10.3807 63.4 9.0486 62.0672 9.0486 60.4297V41.2984C9.0486 39.6609 10.3807 38.3281 12.0173 38.3281H54.053C55.6896 38.3281 57.0217 39.6609 57.0217 41.2984ZM47.0888 36.7281H43.6124C46.136 35.0337 49.8298 31.8437 52.0223 26.7356C56.8995 24.8609 61.1305 20.4761 63.3033 17.9062C62.0074 33.5567 48.2616 36.5047 47.0888 36.7281Z" fill="#65BA7F" stroke="#65BA7F" stroke-width="0.6"/>
<path d="M113.334 20.728C112.868 20.6517 102.636 19.0217 93.7906 25.8838C95.7279 20.475 98.8342 14.0476 103.726 8.65011C103.977 8.37267 104.003 7.95767 103.787 7.6513C103.572 7.34572 103.173 7.22927 102.826 7.37308C102.62 7.45905 97.7274 9.51606 92.5883 13.6762C90.8983 15.0441 89.3875 16.4797 88.0586 17.9711C87.4397 8.75294 82.8778 1.65713 82.6699 1.3388C82.3746 0.887067 81.6254 0.887067 81.3301 1.3388C81.1222 1.65713 76.5603 8.75294 75.9414 17.9711C74.6125 16.4797 73.1017 15.0441 71.4117 13.6762C66.2726 9.51606 61.3797 7.45905 61.1738 7.37308C60.8273 7.22849 60.4281 7.34494 60.2129 7.6513C59.9972 7.95767 60.0226 8.37267 60.2742 8.65011C65.161 14.0421 68.2668 20.4697 70.2052 25.8804C61.3623 19.022 51.1333 20.651 50.666 20.728C50.3144 20.7882 50.0449 21.0735 50.005 21.4275C49.9652 21.7823 50.1644 22.12 50.4937 22.2567C59.4245 25.9569 64.8859 33.9211 66.5737 36.6895H62.8719C62.5586 36.6895 62.2742 36.8723 62.1441 37.1576C61.075 39.5007 60.5332 42.3861 60.5332 45.7335C60.5332 58.3374 67.9562 65 82 65C96.0438 65 103.467 58.3374 103.467 45.7335C103.467 42.3861 102.925 39.5007 101.856 37.1576C101.726 36.8723 101.441 36.6895 101.128 36.6895H97.4263C99.1141 33.9211 104.576 25.9569 113.506 22.2567C113.836 22.12 114.035 21.7823 113.995 21.4275C113.955 21.0735 113.686 20.7882 113.334 20.728ZM82.0008 3.36064C83.3944 5.89318 86.4749 12.3377 86.5251 19.8336C84.3933 22.6144 82.8718 25.5641 82 28.6211C81.1282 25.5641 79.6067 22.6144 77.4749 19.8336C77.5252 12.3506 80.6072 5.89626 82.0008 3.36064ZM81.2027 33.0553C81.2055 33.088 81.2225 33.1147 81.2289 33.1461C81.2395 33.1978 81.2514 33.2466 81.2716 33.2943C81.293 33.3459 81.3198 33.3912 81.3509 33.4364C81.3767 33.4737 81.4021 33.5081 81.4337 33.5405C81.4751 33.5834 81.5203 33.6177 81.5702 33.6502C81.606 33.6735 81.6408 33.6944 81.6803 33.7118C81.735 33.736 81.7913 33.7503 81.8515 33.7615C81.8799 33.767 81.9037 33.7828 81.9332 33.7853C81.9566 33.7875 81.9771 33.7778 82.0001 33.7779C82.0231 33.7778 82.0434 33.7874 82.0668 33.7853C82.0961 33.7828 82.1198 33.7671 82.1481 33.7617C82.2076 33.7505 82.2633 33.7364 82.3175 33.7125C82.3587 33.6945 82.395 33.6728 82.432 33.6484C82.48 33.6169 82.5233 33.5839 82.5634 33.5428C82.5968 33.5089 82.6238 33.4728 82.6507 33.4335C82.6808 33.3895 82.7067 33.3457 82.7276 33.2958C82.7483 33.2473 82.7604 33.1978 82.7712 33.1452C82.7776 33.1141 82.7945 33.0877 82.7973 33.0553C83.7887 21.2478 94.4727 13.7223 100.068 10.5618C91.9777 21.2493 89.7152 33.9676 89.3093 36.6895H74.6908C74.2849 33.9673 72.0217 21.2454 63.9289 10.5571C69.5226 13.7122 80.2102 21.2329 81.2027 33.0553ZM53.9215 22.1231C57.929 22.1355 65.2285 23.0707 71.1921 28.8527C72.317 32.5298 72.8601 35.4217 73.0668 36.6895H68.4308C67.5924 35.1655 62.7648 26.9273 53.9215 22.1231ZM101.867 45.7335C101.867 57.4558 95.1828 63.3994 82 63.3994C68.8172 63.3994 62.1332 57.4558 62.1332 45.7335C62.1332 42.841 62.5582 40.34 63.3972 38.2901H100.603C101.442 40.34 101.867 42.841 101.867 45.7335ZM95.5692 36.6895H90.9327C91.1385 35.4226 91.6802 32.5323 92.8041 28.8562C98.753 23.0864 106.057 22.1449 110.071 22.1278C101.232 26.9326 96.4074 35.1659 95.5692 36.6895Z" fill="#65BA7F" stroke="#65BA7F" stroke-width="0.6"/>
</svg>
