<svg width="51" height="57" viewBox="0 0 51 57" fill="none" xmlns="http://www.w3.org/2000/svg">
<path d="M12.816 6.19189C12.816 3.37589 14.336 1.8559 16.256 1.8559C18.176 1.8559 19.696 3.37589 19.696 6.19189C19.696 9.02389 18.176 10.5439 16.256 10.5439C14.336 10.5439 12.816 9.02389 12.816 6.19189ZM21.792 6.19189C21.792 2.60789 19.664 0.191895 16.256 0.191895C12.848 0.191895 10.72 2.60789 10.72 6.19189C10.72 9.75989 12.848 12.2079 16.256 12.2079C19.664 12.2079 21.792 9.75989 21.792 6.19189Z" fill="#65BA7F"/>
<path d="M25.5267 11.9999H27.5587V2.09589H31.2067V0.399895H21.8787V2.09589H25.5267V11.9999Z" fill="#65BA7F"/>
<path d="M39.5428 11.9999V0.399895H38.1348C37.5428 1.66389 36.7268 1.80789 35.0468 1.8559V3.16789H37.6388V11.9999H39.5428Z" fill="#65BA7F"/>
<path d="M49.2966 22H1.7034C0.765 22 0 22.7502 0 23.6705V32.1529C0 32.8631 0.4488 33.4733 1.0914 33.7133C1.1832 35.4939 1.428 37.2644 1.6932 38.7548C1.6932 38.7848 1.7034 38.8248 1.7034 38.8548C2.4888 43.136 3.8658 47.4673 5.4366 50.8182C5.2938 51.0683 5.202 51.3484 5.202 51.6585V55.3295C5.202 56.2498 5.967 57 6.9054 57H44.0946C45.033 57 45.798 56.2498 45.798 55.3295V51.6585C45.798 51.3484 45.7164 51.0683 45.5634 50.8182C47.1342 47.4673 48.5112 43.136 49.2966 38.8548C49.3068 38.8248 49.3068 38.7848 49.3068 38.7548C49.572 37.2644 49.827 35.5039 49.9086 33.7133C50.541 33.4733 51 32.8631 51 32.1529V23.6705C51 22.7502 50.235 22 49.2966 22ZM2.1216 24.0906H48.8682V31.7428H2.1216V24.0906ZM43.6764 54.9194H7.3236V52.0886H43.6662V54.9194H43.6764ZM47.1852 38.5847C46.4304 42.6559 45.0942 46.8271 43.6152 49.988H7.3848C5.9058 46.8271 4.5696 42.6559 3.8148 38.5847C3.8148 38.5547 3.8046 38.5147 3.8046 38.4847C3.4986 36.8142 3.3048 35.2538 3.2334 33.8234H47.7768C47.6952 35.2438 47.5014 36.8142 47.2056 38.4847C47.1954 38.5247 47.1852 38.5547 47.1852 38.5847Z" fill="#65BA7F"/>
</svg>
