<svg width="88" height="40" viewBox="0 0 88 40" fill="none" xmlns="http://www.w3.org/2000/svg">
<path d="M0.131437 33.2463C0.323182 33.5872 0.685366 33.8003 1.06885 33.8003H31.1514L30.2992 38.743C30.2353 39.1478 30.3844 39.5526 30.7253 39.787C31.0449 40.0213 31.4923 40.0639 31.8545 39.8722L43.487 33.7577C43.5509 33.779 43.6148 33.8003 43.7 33.8003H43.977L55.5242 39.8722C55.6734 39.9574 55.8438 40 56.0143 40C56.2273 40 56.4617 39.9361 56.6321 39.787C56.9517 39.5526 57.1221 39.1478 57.0582 38.743L56.206 33.8003H86.2886C86.6721 33.8003 87.0342 33.5872 87.226 33.2463C87.4177 32.9055 87.3964 32.4794 87.1834 32.1598L79.0449 19.9734L87.1834 7.78695C87.3964 7.46738 87.4177 7.04128 87.226 6.7004C87.0342 6.35952 86.6721 6.14647 86.2886 6.14647H47.4071L44.6374 0.543276C44.2752 -0.181092 43.0822 -0.181092 42.72 0.543276L39.9503 6.14647H1.06885C0.685366 6.14647 0.323182 6.35952 0.131437 6.7004C-0.0603069 7.04128 -0.039002 7.46738 0.174047 7.78695L8.29122 19.9734L0.174047 32.1598C-0.039002 32.4794 -0.0603069 32.9055 0.131437 33.2463ZM84.3072 8.25566L76.8931 19.3768C76.6587 19.739 76.6587 20.2077 76.8931 20.5486L84.3072 31.6698H55.8438L54.7999 25.5766L64.3871 16.245C64.6854 15.968 64.7919 15.5419 64.6641 15.1585C64.5362 14.775 64.1954 14.498 63.8119 14.4341L50.5815 12.5166L48.4723 8.25566H84.3072ZM41.5695 7.65912C41.5908 7.63781 41.5908 7.59521 41.6121 7.5739L43.6787 3.39813L45.7453 7.5739C45.7666 7.61651 45.7666 7.63781 45.7879 7.65912L48.8984 13.9654C49.0476 14.285 49.3458 14.498 49.708 14.5406L61.3618 16.2237L52.925 24.4474C52.6694 24.7031 52.5629 25.0439 52.6268 25.3848L54.6081 36.996L44.8505 31.8615C44.8079 31.8402 44.7653 31.8189 44.7013 31.7763L44.19 31.4993C44.19 31.4993 44.19 31.4993 44.1687 31.4993C44.0196 31.4141 43.8705 31.3715 43.6787 31.3715C43.5083 31.3715 43.3378 31.4354 43.1887 31.4993C43.1887 31.4993 43.1887 31.4993 43.1674 31.4993L32.7493 36.9747L34.7306 25.3635C34.7946 25.0226 34.6667 24.6605 34.4324 24.4261L25.9956 16.2024L37.6494 14.5193C37.9903 14.4767 38.2886 14.2423 38.459 13.9441L41.5695 7.65912ZM10.4856 20.5699C10.72 20.2077 10.72 19.739 10.4856 19.3981L3.07152 8.27696H38.9277L36.8185 12.5379L23.5882 14.4554C23.1834 14.5193 22.8638 14.7963 22.736 15.1798C22.6081 15.5632 22.7147 15.9893 23.0129 16.2663L32.6001 25.5979L31.5562 31.6911H3.05021L10.4856 20.5699Z" fill="#65BA7F"/>
</svg>
