<svg width="87" height="62" viewBox="0 0 87 62" fill="none" xmlns="http://www.w3.org/2000/svg">
<path d="M26.4158 13.4619C25.9486 13.5872 25.6374 14.1261 25.7625 14.5934L38.1966 60.9982C38.3101 61.3807 38.7356 61.8045 39.3281 61.6514L85.7328 49.2173C86.2 49.092 86.5112 48.553 86.3861 48.0858L73.952 1.68107C73.8267 1.21383 73.2878 0.902687 72.8205 1.0278L26.4158 13.4619ZM27.7865 15.0076L44.742 10.4644L48.3288 23.8503C48.3922 24.087 48.547 24.2887 48.7592 24.4112C48.9714 24.5338 49.2236 24.567 49.4603 24.5036L58.3842 22.1124C58.6209 22.049 58.8227 21.8942 58.9452 21.682C59.0677 21.4698 59.1009 21.2176 59.0375 20.9809L55.4508 7.59497L72.4063 3.05171L84.3622 47.6717L67.4066 52.2148L63.8199 38.8288C63.7564 38.5922 63.6016 38.3904 63.3894 38.2679C63.1772 38.1454 62.925 38.1122 62.6884 38.1756L53.7644 40.5667C53.5277 40.6302 53.3259 40.7851 53.2034 40.9973C53.0809 41.2095 53.0477 41.4616 53.1111 41.6983L56.6979 55.0843L39.7423 59.6275L27.7865 15.0076ZM46.5268 9.98615L53.666 8.07321L57.0136 20.5668L49.8744 22.4797L46.5268 9.98615ZM1.68499 35.392C1.19214 35.5241 0.899646 36.0307 1.03171 36.5236C1.16377 37.0164 1.67037 37.3089 2.16322 37.1769L21.796 31.9162C22.2888 31.7842 22.5813 31.2775 22.4492 30.7847C22.3172 30.2918 21.8106 29.9993 21.3177 30.1315L1.68499 35.392ZM11.2153 42.4031C10.7225 42.5352 10.43 43.0417 10.5621 43.5346C10.6941 44.0274 11.2007 44.3199 11.6936 44.1879L24.1871 40.8402C24.68 40.7082 24.9725 40.2015 24.8404 39.7087C24.7083 39.2158 24.2018 38.9234 23.7089 39.0555L11.2153 42.4031ZM18.9609 49.8924C18.468 50.0244 18.1756 50.531 18.3076 51.0239C18.4397 51.5168 18.9463 51.8092 19.4391 51.6771L26.5783 49.7642C27.0712 49.6321 27.3636 49.1256 27.2316 48.6327C27.0995 48.1398 26.5929 47.8474 26.1001 47.9794L18.9609 49.8924ZM55.135 42.1125L62.2742 40.1995L65.6218 52.6931L58.4826 54.606L55.135 42.1125Z" fill="#65BA7F" stroke="#65BA7F" stroke-width="0.4"/>
</svg>
