<svg width="62" height="62" viewBox="0 0 62 62" fill="none" xmlns="http://www.w3.org/2000/svg">
<path d="M1.83778 61.7039C1.76162 61.7039 1.60929 61.7039 1.53313 61.6278C1.22849 61.4754 1 61.1708 1 60.8661V31.4677C1 26.9741 4.65577 23.3945 9.07315 23.3945H21.4875C21.9445 23.3945 22.3253 23.7753 22.3253 24.2323C22.3253 24.6893 21.9445 25.0701 21.4875 25.0701H9.07315C5.56971 25.0701 2.67556 27.9642 2.67556 31.4677V58.9621L8.23537 53.5546C8.3877 53.4023 8.61618 53.3261 8.84467 53.3261H33.9019C37.4053 53.3261 40.2995 50.432 40.2995 46.9285V38.5507C40.2995 38.0938 40.6803 37.713 41.1373 37.713C41.5942 37.713 41.9751 38.0938 41.9751 38.5507V46.9285C41.9751 51.4221 38.3193 55.0017 33.9019 55.0017H9.14931L2.37091 61.4754C2.21859 61.6278 2.06627 61.7039 1.83778 61.7039Z" fill="#65BA7F" stroke="#65BA7F" stroke-width="0.4"/>
<path d="M53.4756 39.3125H28.7231C24.2295 39.3125 20.6499 35.6567 20.6499 31.2393V15.8546C20.6499 11.3611 24.3057 7.78149 28.7231 7.78149H53.3995L60.1779 1.23157C60.4064 1.00309 60.7872 0.926924 61.0918 1.07925C61.3965 1.23157 61.625 1.53622 61.625 1.84087V31.3155C61.625 35.6567 57.9692 39.3125 53.4756 39.3125ZM28.7231 9.38089C25.2196 9.38089 22.3255 12.275 22.3255 15.7785V31.1632C22.3255 34.6666 25.2196 37.5608 28.7231 37.5608H53.4756C56.9791 37.5608 59.8732 34.6666 59.8732 31.1632V3.74491L54.3134 9.1524C54.1611 9.30472 53.9326 9.38089 53.7041 9.38089H28.7231Z" fill="#65BA7F" stroke="#65BA7F" stroke-width="0.4"/>
<path d="M35.1204 25.1461C35.8355 25.1461 36.4152 24.5665 36.4152 23.8514C36.4152 23.1363 35.8355 22.5566 35.1204 22.5566C34.4054 22.5566 33.8257 23.1363 33.8257 23.8514C33.8257 24.5665 34.4054 25.1461 35.1204 25.1461Z" fill="#65BA7F" stroke="#65BA7F" stroke-width="0.4"/>
<path d="M41.8988 25.1461C42.6138 25.1461 43.1935 24.5665 43.1935 23.8514C43.1935 23.1363 42.6138 22.5566 41.8988 22.5566C41.1837 22.5566 40.604 23.1363 40.604 23.8514C40.604 24.5665 41.1837 25.1461 41.8988 25.1461Z" fill="#65BA7F" stroke="#65BA7F" stroke-width="0.4"/>
<path d="M48.7532 25.1461C49.4683 25.1461 50.048 24.5665 50.048 23.8514C50.048 23.1363 49.4683 22.5566 48.7532 22.5566C48.0382 22.5566 47.4585 23.1363 47.4585 23.8514C47.4585 24.5665 48.0382 25.1461 48.7532 25.1461Z" fill="#65BA7F" stroke="#65BA7F" stroke-width="0.4"/>
</svg>
