<svg width="344" height="339" viewBox="0 0 344 339" fill="none" xmlns="http://www.w3.org/2000/svg"><path d="M172.925.639l-5.825 17.93h-18.853l15.252 11.081-5.826 17.93 15.252-11.081 15.253 11.081-5.826-17.93 15.252-11.081h-18.853L172.925.639zm74.552 17.459l-5.825 17.93h-18.853l15.252 11.082-5.826 17.93 15.252-11.082L262.73 65.04l-5.826-17.93 15.252-11.082h-18.853l-5.826-17.93zm37.871 100.648l15.252-11.082 15.253 11.082-5.826-17.93 15.252-11.082h-18.853l-5.826-17.93-5.825 17.93h-18.853l15.252 11.082-5.826 17.93zM344 163.737h-18.853l-5.826-17.93-5.826 17.93h-18.852l15.252 11.081-5.826 17.93 15.252-11.081 15.252 11.081-5.825-17.93L344 163.737zm-37.574 72.934l-5.826-17.93-5.825 17.93h-18.853l15.252 11.082-5.826 17.93 15.252-11.082 15.253 11.082-5.826-17.93 15.252-11.082h-18.853zm-53.123 54.369l-5.826-17.93-5.825 17.93h-18.853l15.252 11.082-5.826 17.93 15.252-11.082 15.253 11.082-5.826-17.93 15.252-11.082h-18.853zm-74.552 18.81l-5.826-17.93-5.825 17.93h-18.853l15.252 11.082-5.826 17.93 15.252-11.082 15.253 11.082-5.826-17.93 15.252-11.082h-18.853zm-73.657-18.81l-5.826-17.93-5.825 17.93H74.59l15.252 11.082-5.826 17.93 15.252-11.082 15.252 11.082-5.825-17.93 15.252-11.082h-18.853zM50.76 236.671l-5.826-17.93-5.826 17.93H20.255l15.252 11.082-5.825 17.93 15.252-11.082 15.252 11.082-5.826-17.93 15.252-11.082H50.76zm-25.433-55.004l15.252 11.081-5.826-17.93 15.253-11.081H31.153l-5.826-17.93-5.826 17.93H.648l15.253 11.081-5.826 17.93 15.252-11.081zM44.934 71.804l-5.826 17.93H20.255l15.252 11.082-5.825 17.93 15.252-11.082 15.252 11.082-5.826-17.93 15.252-11.082H50.76l-5.825-17.93zm54.334-53.706l-5.825 17.93H74.59L89.842 47.11l-5.826 17.93 15.252-11.082L114.52 65.04l-5.825-17.93 15.252-11.082h-18.853l-5.826-17.93z" fill="#CAE8D9"/></svg>