<svg width="66" height="66" viewBox="0 0 66 66" fill="none" xmlns="http://www.w3.org/2000/svg"><path d="M32.39 64.77l.322.23.322-.23C53.678 50.061 65.39 32.217 64.36 17.035c-.439-6.463-3.398-11.593-8.12-14.075C53.765 1.66 51.218 1 48.671 1c-8.3 0-14.3 6.807-15.96 8.915C31.053 7.808 25.052 1 16.753 1c-2.548 0-5.095.66-7.571 1.96-4.724 2.482-7.682 7.612-8.12 14.076C.035 32.217 11.745 50.062 32.39 64.77zM2.168 17.11c.411-6.07 3.154-10.87 7.527-13.168 2.316-1.216 4.69-1.833 7.057-1.833 9.029 0 15.444 8.955 15.507 9.046l.453.642.452-.642c.064-.09 6.478-9.046 15.506-9.046 2.366 0 4.74.616 7.056 1.833C60.1 6.24 62.844 11.04 63.255 17.11c.374 5.523-.73 25.153-30.543 46.528C2.898 42.264 1.793 22.634 2.168 17.111z" fill="#65BA7F" stroke="#65BA7F" stroke-width="1.5"/><path d="M33.266 22.692h-1.108v17.119h1.108V22.692zm0 20.828h-1.108v3.137h1.108v-3.136z" fill="#65BA7F" stroke="#65BA7F" stroke-width="1.5"/></svg>