<svg width="62" height="62" viewBox="0 0 62 62" fill="none" xmlns="http://www.w3.org/2000/svg"><path d="M1.838 61.704c-.076 0-.229 0-.305-.076-.305-.153-.533-.457-.533-.762V31.468c0-4.494 3.656-8.073 8.073-8.073h12.415c.457 0 .837.38.837.837 0 .457-.38.838-.837.838H9.073c-3.503 0-6.397 2.894-6.397 6.398v27.494l5.56-5.407a.865.865 0 01.609-.229h25.057c3.503 0 6.398-2.894 6.398-6.398v-8.377c0-.457.38-.838.837-.838.457 0 .838.38.838.838v8.377c0 4.494-3.656 8.074-8.073 8.074H9.149l-6.778 6.473a.691.691 0 01-.533.229z" fill="#65BA7F" stroke="#65BA7F" stroke-width=".4"/><path d="M53.476 39.313H28.723c-4.493 0-8.073-3.656-8.073-8.074V15.855c0-4.494 3.656-8.074 8.073-8.074H53.4l6.778-6.55a.81.81 0 01.914-.152c.305.153.533.457.533.762v29.475c0 4.34-3.656 7.997-8.15 7.997zM28.723 9.38c-3.503 0-6.397 2.894-6.397 6.397v15.385c0 3.504 2.894 6.398 6.397 6.398h24.753c3.503 0 6.397-2.894 6.397-6.398V3.745l-5.56 5.407a.865.865 0 01-.609.229h-24.98z" fill="#65BA7F" stroke="#65BA7F" stroke-width=".4"/></svg>