<svg width="115" height="66" viewBox="0 0 115 66" fill="none" xmlns="http://www.w3.org/2000/svg"><path d="M64.446 14.723a.802.802 0 00-.895.296c-.053.072-4.852 6.692-10.751 9.63 1.574-5.046 1.646-11.682-1.748-20.226-.123-.308-.415-.48-.754-.505a.8.8 0 00-.74.523c-.037.101-2.768 7.404-8.673 16.682-.953-9.544-6.912-19.298-7.187-19.743a.799.799 0 00-.68-.38h0a.798.798 0 00-.68.381c-.276.447-6.243 10.263-7.163 19.835-5.942-9.318-8.696-16.673-8.733-16.775a.8.8 0 00-.74-.523h-.01c-.327 0-.622.2-.744.505-3.394 8.544-3.322 15.18-1.748 20.225-5.899-2.937-10.698-9.557-10.75-9.63a.8.8 0 00-1.45.467c0 13.03 7.82 18.821 13.065 21.243h-2.048a4.574 4.574 0 00-4.567 4.57V60.43c0 2.52 2.048 4.57 4.567 4.57h42.036a4.574 4.574 0 004.568-4.57V41.298c0-2.52-2.05-4.57-4.568-4.57h-2.118C57.179 34.306 65 28.515 65 15.485a.8.8 0 00-.554-.762zM33.02 3.401c1.758 3.153 6.304 12.068 6.39 19.976a105.633 105.633 0 01-6.41 8.59 105.491 105.491 0 01-6.344-8.49C26.705 15.55 31.262 6.57 33.02 3.4zM15.724 6.915c1.885 4.394 7.227 15.66 16.646 26.797a.777.777 0 00.39.237.777.777 0 00.239.034.778.778 0 00.191-.02c.017-.005.032-.008.047-.014a.776.776 0 00.39-.236c9.42-11.137 14.761-22.404 16.647-26.798 2.812 8.076 2.335 14.188.568 18.718a.79.79 0 00-.16.419c-2.975 7.147-9.157 10.19-10.237 10.676H25.554c-1.079-.482-7.263-3.507-10.24-10.646a.789.789 0 00-.192-.497c-1.746-4.523-2.202-10.617.603-18.67zm-4.933 26.091c-4.847-3.56-7.564-8.633-8.096-15.1 2.173 2.569 6.404 6.955 11.282 8.83 2.192 5.108 5.886 8.298 8.41 9.992h-3.472c-.516-.102-4.328-.933-8.124-3.722zm46.23 8.292V60.43a2.973 2.973 0 01-2.969 2.97H12.017a2.973 2.973 0 01-2.968-2.97V41.298a2.973 2.973 0 012.968-2.97h42.036a2.973 2.973 0 012.969 2.97zm-9.933-4.57h-3.477c2.524-1.694 6.218-4.884 8.41-9.992 4.878-1.875 9.108-6.26 11.281-8.83-1.296 15.65-15.041 18.599-16.214 18.822z" fill="#65BA7F" stroke="#65BA7F" stroke-width=".6"/><path d="M113.334 20.728c-.466-.076-10.698-1.706-19.543 5.156 1.937-5.409 5.043-11.836 9.935-17.234a.801.801 0 00-.9-1.277c-.206.086-5.099 2.143-10.238 6.303a38.464 38.464 0 00-4.53 4.295C87.44 8.753 82.879 1.657 82.67 1.34c-.295-.452-1.045-.452-1.34 0-.208.318-4.77 7.414-5.389 16.632a38.464 38.464 0 00-4.53-4.295C66.274 9.516 61.38 7.46 61.175 7.373a.8.8 0 00-.9 1.277c4.887 5.392 7.993 11.82 9.931 17.23-8.843-6.858-19.072-5.229-19.539-5.152a.801.801 0 00-.172 1.529c8.93 3.7 14.392 11.664 16.08 14.433h-3.702a.8.8 0 00-.728.468c-1.069 2.343-1.61 5.228-1.61 8.575C60.533 58.337 67.955 65 82 65s21.467-6.663 21.467-19.267c0-3.347-.542-6.232-1.611-8.575a.8.8 0 00-.728-.468h-3.702c1.688-2.769 7.15-10.733 16.08-14.433a.8.8 0 00-.172-1.529zM82.001 3.361c1.393 2.532 4.474 8.977 4.524 16.473-2.132 2.78-3.653 5.73-4.525 8.787-.872-3.057-2.393-6.007-4.525-8.787C77.525 12.35 80.607 5.896 82 3.36zm-.798 29.694c.002.033.02.06.026.091.01.052.022.1.043.148a.764.764 0 00.079.142.778.778 0 00.083.105.764.764 0 00.136.11c.036.022.07.043.11.06a.758.758 0 00.171.05c.029.006.053.022.082.024.024.003.044-.007.067-.007.023 0 .043.01.067.007.03-.002.053-.018.081-.023a.761.761 0 00.17-.05.753.753 0 00.114-.064.764.764 0 00.34-.503c.006-.03.022-.057.025-.09.992-11.807 11.676-19.333 17.271-22.493-8.09 10.687-10.353 23.406-10.759 26.128H74.691c-.406-2.723-2.67-15.445-10.762-26.133 5.594 3.155 16.281 10.676 17.274 22.498zM53.92 22.123c4.008.012 11.307.948 17.271 6.73 1.125 3.677 1.668 6.569 1.875 7.837H68.43c-.839-1.524-5.666-9.763-14.51-14.567zm47.946 23.61C101.867 57.456 95.183 63.4 82 63.4s-19.867-5.943-19.867-17.666c0-2.892.425-5.393 1.264-7.443h37.206c.839 2.05 1.264 4.551 1.264 7.444zm-6.298-9.043h-4.636c.205-1.267.747-4.158 1.871-7.834 5.949-5.77 13.253-6.711 17.267-6.728-8.839 4.805-13.664 13.038-14.502 14.562z" fill="#65BA7F" stroke="#65BA7F" stroke-width=".6"/></svg>