<svg width="87" height="62" viewBox="0 0 87 62" fill="none" xmlns="http://www.w3.org/2000/svg"><path d="M26.416 13.462c-.467.125-.779.664-.654 1.131l12.435 46.405c.113.383.539.806 1.131.653l46.405-12.434c.467-.125.778-.664.653-1.131L73.952 1.68c-.125-.467-.664-.778-1.132-.653L26.416 13.462zm1.37 1.546l16.956-4.544 3.587 13.386a.923.923 0 001.131.654l8.924-2.392a.924.924 0 00.654-1.131L55.45 7.595l16.955-4.543 11.956 44.62-16.955 4.543-3.587-13.386a.924.924 0 00-1.132-.653l-8.924 2.39a.924.924 0 00-.653 1.132l3.587 13.386-16.956 4.543-11.955-44.62zm18.74-5.022l7.14-1.913 3.348 12.494-7.14 1.913-3.347-12.494zM1.686 35.392a.924.924 0 00.478 1.785l19.633-5.26a.924.924 0 10-.478-1.786L1.685 35.392zm9.53 7.011a.924.924 0 10.479 1.785l12.493-3.348a.924.924 0 10-.478-1.785l-12.494 3.348zm7.746 7.49a.924.924 0 10.478 1.784l7.14-1.913a.924.924 0 00-.479-1.785l-7.14 1.913zm36.174-7.78l7.14-1.913 3.347 12.493-7.14 1.913-3.347-12.494z" fill="#65BA7F" stroke="#65BA7F" stroke-width=".4"/></svg>