<svg width="51" height="57" viewBox="0 0 51 57" fill="none" xmlns="http://www.w3.org/2000/svg"><path d="M12.816 6.192c0-2.816 1.52-4.336 3.44-4.336s3.44 1.52 3.44 4.336c0 2.832-1.52 4.352-3.44 4.352s-3.44-1.52-3.44-4.352zm8.976 0c0-3.584-2.128-6-5.536-6-3.408 0-5.536 2.416-5.536 6 0 3.568 2.128 6.016 5.536 6.016 3.408 0 5.536-2.448 5.536-6.016zM25.527 12h2.032V2.096h3.648V.4h-9.328v1.696h3.648V12zm14.016 0V.4h-1.408c-.592 1.264-1.408 1.408-3.088 1.456v1.312h2.592V12h1.904zm9.754 10H1.703C.765 22 0 22.75 0 23.67v8.483c0 .71.449 1.32 1.091 1.56.092 1.78.337 3.551.602 5.042 0 .03.01.07.01.1.786 4.281 2.163 8.612 3.734 11.963a1.68 1.68 0 00-.235.84v3.672c0 .92.765 1.67 1.703 1.67h37.19c.938 0 1.703-.75 1.703-1.67v-3.672c0-.31-.082-.59-.235-.84 1.571-3.35 2.948-7.682 3.734-11.963.01-.03.01-.07.01-.1.265-1.49.52-3.251.602-5.042A1.682 1.682 0 0051 32.153V23.67c0-.92-.765-1.671-1.703-1.671zM2.122 24.09h46.746v7.653H2.122V24.09zm41.554 30.83H7.324v-2.831h36.342v2.83h.01zm3.51-16.335c-.756 4.07-2.092 8.242-3.57 11.403H7.384c-1.48-3.16-2.815-7.332-3.57-11.403 0-.03-.01-.07-.01-.1-.306-1.67-.5-3.231-.572-4.662h44.544a40.307 40.307 0 01-.571 4.662c-.01.04-.02.07-.02.1z" fill="#65BA7F"/></svg>