<svg width="88" height="40" viewBox="0 0 88 40" fill="none" xmlns="http://www.w3.org/2000/svg"><path d="M.131 33.246c.192.341.554.554.938.554H31.15l-.852 4.943c-.064.405.085.81.426 1.044.32.234.767.277 1.13.085l11.632-6.114a.63.63 0 00.213.042h.277l11.547 6.072a.99.99 0 00.49.128.948.948 0 00.618-.213c.32-.234.49-.64.426-1.044l-.852-4.943h30.083c.383 0 .745-.213.937-.554.192-.34.17-.767-.043-1.086l-8.138-12.187 8.138-12.186c.213-.32.235-.746.043-1.087a1.084 1.084 0 00-.937-.554H47.407L44.637.543c-.362-.724-1.555-.724-1.917 0l-2.77 5.603H1.07c-.384 0-.746.214-.938.554-.191.341-.17.767.043 1.087l8.117 12.186L.174 32.16a1.05 1.05 0 00-.043 1.086zm84.176-24.99l-7.414 11.12a1.068 1.068 0 000 1.173l7.414 11.12H55.844L54.8 25.578l9.587-9.332c.298-.277.405-.703.277-1.087a1.096 1.096 0 00-.852-.724l-13.23-1.917-2.11-4.261h35.835zM41.57 7.659c.022-.021.022-.064.043-.085l2.067-4.176 2.066 4.176c.022.043.022.064.043.085l3.11 6.306c.15.32.448.533.81.576l11.654 1.683-8.437 8.223a1.038 1.038 0 00-.298.938l1.981 11.611-9.758-5.135a1.23 1.23 0 01-.149-.085l-.511-.277h-.021a.934.934 0 00-.49-.127c-.17 0-.341.063-.49.127h-.022L32.75 36.975l1.982-11.612a1.078 1.078 0 00-.299-.937l-8.436-8.224 11.653-1.683c.341-.042.64-.277.81-.575l3.11-6.285zM10.486 20.57c.234-.361.234-.83 0-1.17L3.072 8.276h35.856l-2.11 4.26-13.23 1.918a1.065 1.065 0 00-.852.725c-.128.383-.021.81.277 1.086l9.587 9.332-1.044 6.093H3.05l7.436-11.121z" fill="#65BA7F"/></svg>