<svg width="98" height="82" viewBox="0 0 98 82" fill="none" xmlns="http://www.w3.org/2000/svg"><path d="M96.297 46H48.703c-.938 0-1.703.75-1.703 1.67v8.483c0 .71.449 1.32 1.091 1.56.092 1.78.337 3.551.602 5.042 0 .03.01.07.01.1.786 4.281 2.163 8.612 3.734 11.963a1.68 1.68 0 00-.235.84v3.671c0 .92.765 1.671 1.703 1.671h37.19c.938 0 1.703-.75 1.703-1.67v-3.671c0-.31-.082-.59-.235-.84 1.571-3.352 2.948-7.683 3.734-11.964.01-.03.01-.07.01-.1.265-1.49.52-3.251.602-5.042A1.682 1.682 0 0098 56.153V47.67c0-.92-.765-1.67-1.703-1.67zm-47.175 2.09h46.746v7.653H49.122V48.09zm41.554 30.83H54.324v-2.831h36.342v2.83h.01zm3.51-16.335c-.756 4.07-2.092 8.242-3.57 11.403H54.384c-1.48-3.16-2.815-7.332-3.57-11.403 0-.03-.01-.07-.01-.1-.306-1.67-.5-3.231-.572-4.662h44.544a40.307 40.307 0 01-.571 4.662c-.01.04-.02.07-.02.1z" fill="#65BA7F"/><path d="M42.203 38.58c-1.753-.694-5.354-1.705-9.88-.678-3.123.71-5.45 2.432-7.106 4.265l.43-.759c0-.015.016-.015.016-.031.255-.506.574-.995.924-1.5l.048-.064c0-.016.016-.032.016-.032.191-.331.43-.647.67-.98.127-.173.254-.362.381-.536.112-.142.208-.269.32-.41.27-.364.54-.696.812-1.028.16-.19.319-.379.478-.553.223-.268.43-.52.653-.742l.016-.016c.191-.221.382-.426.574-.632.653.49 2.04 1.359 3.728 1.359.112 0 .24 0 .35-.016 1.483-.11 2.662-.885 3.379-1.5 1.737-.79 3.346-2.244 4.334-4.013 1.769-2.922 1.785-5.529 1.546-7.914a.786.786 0 00-.479-.648.8.8 0 00-.382-.047v-.221a.774.774 0 00-.797-.727c-.08 0-.175 0-.255.016a.87.87 0 00-.063-.443.79.79 0 00-.67-.458c-2.422-.126-5.083 0-7.983 1.864-1.943 1.154-3.49 3.05-4.11 4.992-.526.79-1.132 2.07-1.02 3.523.095 1.31.765 2.4 1.354 3.112-.223.237-.43.474-.653.71-.24.253-.478.538-.701.806-.144.174-.303.364-.462.537l-.016.016c-.287.348-.574.711-.845 1.074a7.408 7.408 0 00-.319.427c-.015.016-.015.031-.031.031-.128.174-.24.348-.367.522-.255.347-.51.71-.749 1.09l-.032.047c-.35.521-.7 1.058-.988 1.627l-.462.806c-.016.016-.016.031-.031.047l-.542 1.138V25.28c1.083-.095 3.617-.521 5.354-2.386 1.338-1.437 1.736-3.27 1.848-4.517.956-2.338 1.147-5.26.414-7.883-1.051-4.486-3.521-7.061-6.039-9.162a.77.77 0 00-.796-.126.726.726 0 00-.463.52c-.175-.189-.334-.363-.51-.52a.795.795 0 00-1.083.015c-.191.174-.366.395-.558.616v-.063a.76.76 0 00-.494-.632.77.77 0 00-.796.127c-2.518 2.1-4.988 4.66-6.055 9.146-.813 2.89-.494 6.177.733 8.625.239 1.232.828 3.017 2.31 4.328 1.45 1.28 3.299 1.69 4.557 1.801v17.456l-.541-1.138c0-.015-.016-.031-.032-.047l-.463-.806c-.302-.568-.653-1.105-.987-1.627l-.032-.047a9.411 9.411 0 00-.75-1.09 10.297 10.297 0 01-.366-.521c-.016-.016-.016-.032-.031-.032-.112-.142-.224-.284-.32-.426-.27-.364-.557-.727-.844-1.075l-.016-.016c-.159-.173-.302-.363-.462-.537a17.052 17.052 0 00-.7-.805c-.224-.237-.431-.474-.654-.711.59-.727 1.259-1.8 1.354-3.112.112-1.453-.494-2.717-1.02-3.523-.637-1.927-2.166-3.838-4.11-4.991-2.916-1.864-5.562-1.99-7.984-1.864a.79.79 0 00-.669.458.836.836 0 00-.063.442c-.08 0-.176-.016-.255-.016a.774.774 0 00-.797.727v.22a.766.766 0 00-.86.695c-.24 2.37-.224 4.977 1.545 7.915.972 1.77 2.597 3.223 4.334 4.013.733.616 1.912 1.39 3.378 1.5.112.016.24.016.35.016 1.674 0 3.076-.853 3.73-1.358.19.205.382.41.573.631l.016.016c.207.221.43.474.653.743.16.19.319.379.478.553.271.331.526.663.813 1.026.111.142.207.269.319.411.127.174.255.363.382.537.239.332.478.648.67.98 0 .015.015.031.015.031l.048.063c.334.522.653.995.924 1.501 0 .016.016.016.016.032l.43.758c-1.673-1.833-3.983-3.554-7.106-4.265-4.526-1.027-8.143-.016-9.88.679a.778.778 0 00-.446.98c.606 1.753 2.167 5.086 5.912 7.803 2.693 1.943 5.672 2.512 8.254 2.512 2.183 0 4.063-.411 5.242-.743v2.054H9.235c-.924 0-1.657.742-1.657 1.659v20.03c0 .742.494 1.358 1.163 1.58.303 1.61 1.514 2.906 3.107 3.348v1.948c0 .711.494 1.264 1.115 1.264h19.185c.637 0 1.115-.553 1.115-1.264v-1.948c1.578-.442 2.805-1.753 3.108-3.349a1.657 1.657 0 001.147-1.58V52.83c0-.916-.749-1.658-1.657-1.658H23.337v-2.054c1.179.332 3.075.743 5.242.743 2.581 0 5.56-.569 8.254-2.512 3.744-2.701 5.306-6.05 5.911-7.804.048-.394-.159-.821-.541-.963zm-11.76-10.662c.478.521 1.116 1.406 1.195 2.448.048.711-.127 1.438-.558 2.196a.79.79 0 00-.08.569c-.493-.506-1.258-1.453-1.354-2.638-.08-1.027.399-1.99.797-2.575zM41.39 22.8c-.319 2.511-2.31 6.73-4.86 8.751-.67-.253-1.466-.426-2.31-.363a5.238 5.238 0 00-1.084.205c.064-.379.08-.758.048-1.137a5.026 5.026 0 00-.653-2.085c1.991-2.638 6.39-4.881 8.859-5.371zm-6.9 11.863c-1.242.095-2.358-.553-2.916-.963a.804.804 0 00.654-.127c.7-.505 1.418-.79 2.119-.837 1.068-.079 2.04.395 2.645.774-.542.474-1.434 1.074-2.502 1.153zm6.47-4.755c0 .016-.016.016-.016.032-.59 1.074-1.482 2.022-2.486 2.717-.111-.095-.27-.205-.446-.332 1.976-1.8 3.553-4.597 4.366-7.06-.048 1.547-.43 3.032-1.418 4.643zm-6.932-6.46c.016 0 .016-.016.032-.016 1.785-1.153 3.458-1.564 5.227-1.643-2.645.963-5.816 2.875-7.68 5.07a14.834 14.834 0 00-.463-.473 7.998 7.998 0 012.884-2.939zm-22.244 7.93a5.046 5.046 0 00-1.083-.206c-.845-.063-1.641.11-2.31.363-2.55-2.022-4.558-6.24-4.86-8.751 2.47.506 6.867 2.733 8.843 5.37a5.026 5.026 0 00-.653 2.086c-.016.38 0 .758.063 1.137zm1.498-1.012c.08-1.058.701-1.927 1.195-2.448.399.584.877 1.548.797 2.59-.096 1.17-.86 2.133-1.354 2.639a.717.717 0 00-.08-.569c-.415-.758-.606-1.5-.558-2.212zm-2.422-6.934c.016 0 .016.015.032.015a8.16 8.16 0 012.9 2.939c-.127.11-.287.268-.462.474-1.864-2.196-5.035-4.108-7.68-5.071 1.768.079 3.425.505 5.21 1.643zM3.977 29.94c0-.016-.016-.016-.016-.032-.972-1.611-1.355-3.096-1.434-4.644.812 2.449 2.39 5.245 4.366 7.061-.176.127-.335.237-.447.332-.988-.695-1.88-1.643-2.47-2.717zm6.453 4.723c-1.068-.079-1.96-.68-2.502-1.153.606-.38 1.578-.853 2.645-.774.701.047 1.418.332 2.12.837.19.142.43.174.653.127-.558.41-1.673 1.058-2.916.963zm2.884 44.773v-1.49h18.308v1.49H13.314zm18.643-3.038H12.963c-1.242 0-2.31-.79-2.676-1.895H34.65a2.866 2.866 0 01-2.693 1.895zm3.92-23.568v20.03c0 .047-.048.095-.096.095H9.155c-.048 0-.095-.048-.095-.095V52.83c0-.048.047-.095.095-.095h26.626c.048 0 .096.031.096.095zM24.93 3.495c2.103 1.959 3.649 4.091 4.414 7.361 0 .016 0 .016.016.032.494 1.753.51 3.633.143 5.34-.255.015-.749.047-1.354.157.382-4.25-1.227-9.478-3.219-12.78v-.11zm-2.39-.569c1.179 1.39 2.358 3.776 3.139 6.35.844 2.78 1.115 5.45.813 7.567-.925.364-1.897.917-2.693 1.77-.43.473-.781.995-1.068 1.595-.35-.6-.78-1.122-1.29-1.564-.845-.742-1.833-1.2-2.741-1.469-.733-4.739 1.736-11.547 3.84-14.249zm-6.963 7.899c0-.016 0-.016.016-.032.78-3.27 2.326-5.402 4.43-7.345l.047.474c-1.864 3.46-3.394 8.814-2.98 12.953a8.533 8.533 0 00-1.482-.047c-.557-1.865-.59-4.029-.031-6.003zm.7 7.55c1.005.032 2.805.285 4.128 1.438.78.695 1.338 1.659 1.673 2.86a.79.79 0 00.797.568.778.778 0 00.732-.648c.208-1.2.67-2.195 1.355-2.938 1.179-1.28 2.948-1.706 3.951-1.848-.031.98-.286 2.717-1.465 3.997-1.403 1.516-3.602 1.832-4.414 1.895a.718.718 0 00-.319-.063h-.159c-.032 0-.064-.016-.096-.016h-.08c-.987-.016-2.868-.237-4.238-1.453-1.29-1.106-1.72-2.812-1.864-3.791zm-7.185 27.71c-2.931-2.132-4.381-4.66-5.083-6.334 1.737-.569 4.67-1.153 8.238-.348 5.482 1.232 8.222 6.082 9.162 8.167-2.23.68-7.775 1.801-12.317-1.485zm26.738 0c-4.541 3.286-10.086 2.149-12.317 1.485.94-2.085 3.68-6.935 9.162-8.167 3.57-.805 6.501-.221 8.238.348-.701 1.674-2.151 4.218-5.083 6.334z" fill="#65BA7F" stroke="#65BA7F" stroke-width=".4"/></svg>