<svg width="14" height="14" viewBox="0 0 14 14" fill="none" xmlns="http://www.w3.org/2000/svg"><path d="M7.017 4.632a2.35 2.35 0 100 4.702 2.35 2.35 0 000-4.702z" fill="#0F2C2D"/><path d="M9.473 0H4.561C2.071 0 0 2.07 0 4.561v4.877C0 11.964 2.07 14 4.561 14h4.877C11.964 14 14 11.93 14 9.438V4.561C14.035 2.071 11.964 0 9.473 0zM7.017 10.666c-2 0-3.649-1.614-3.649-3.649a3.646 3.646 0 013.65-3.649c2 0 3.648 1.614 3.648 3.65 0 2-1.614 3.648-3.649 3.648zm3.58-6.42a.891.891 0 01-.878-.878c0-.456.421-.912.877-.912.491 0 .877.421.877.877 0 .527-.386.912-.877.912z" fill="#0F2C2D"/></svg>