<svg width="19" height="11" viewBox="0 0 19 11" fill="none" xmlns="http://www.w3.org/2000/svg"><path d="M9.293 10.937h1.147s.365-.053.521-.211c.156-.159.156-.529.156-.529s0-1.532.678-1.743c.677-.212 1.615 1.48 2.553 2.166.73.476 1.251.37 1.251.37l2.554-.053s1.303-.105.677-1.162c-.052-.106-.365-.793-1.876-2.22-1.563-1.479-1.355-1.267.521-3.856 1.147-1.586 1.616-2.537 1.46-2.96-.157-.37-.99-.263-.99-.263h-2.867s-.208-.053-.365.052c-.156.106-.26.317-.26.317s-.47 1.216-1.043 2.272c-1.25 2.167-1.771 2.325-1.98 2.167-.469-.265-.365-1.216-.365-1.902 0-2.114.313-3.012-.625-3.223C10.127.106 9.919.053 9.085 0 8.043 0 7.209 0 6.74.264c-.313.159-.573.529-.417.529.208 0 .625.105.834.422.313.423.26 1.321.26 1.321s.157 2.483-.416 2.8c-.365.212-.886-.21-2.033-2.219a22.859 22.859 0 01-1.042-2.113s0-.211-.156-.317C3.56.528 3.353.528 3.353.528H.643S.226.528.069.74c-.156.158 0 .475 0 .475s2.137 5.02 4.534 7.556c2.19 2.325 4.69 2.166 4.69 2.166z" fill="#0F2C2D"/></svg>