<svg width="25" height="18" viewBox="0 0 25 18" fill="none" xmlns="http://www.w3.org/2000/svg">
<path d="M12.4032 1.01088C12.3314 1.027 12.2648 1.0609 12.2093 1.1095C12.1538 1.15811 12.1112 1.21988 12.0853 1.28924C11.6187 2.46448 12.011 3.10619 10.2194 4.93579C9.61912 5.55641 9.2518 6.42666 9.2518 7.37146C9.2518 9.23546 10.7 10.7675 12.5 10.7675C14.3 10.7675 15.7482 9.23546 15.7482 7.37146C15.7482 6.42666 15.3809 5.55641 14.7806 4.93579C12.989 3.10619 13.3813 2.46448 12.9147 1.28924C12.8772 1.18846 12.8048 1.10475 12.7107 1.05358C12.6167 1.00241 12.5075 0.987242 12.4032 1.01088ZM12.5 3.08468C12.7211 3.7395 13.1245 4.52019 14.1448 5.56211C14.5846 6.01682 14.8636 6.65849 14.8636 7.37146C14.8636 8.77657 13.8003 9.87673 12.5 9.87673C11.1997 9.87673 10.1364 8.77657 10.1364 7.37146C10.1364 6.65849 10.4154 6.01682 10.8552 5.56211C11.8755 4.52019 12.2789 3.7395 12.5 3.08468ZM4.38642 6.70339C4.31462 6.71952 4.24795 6.75341 4.19244 6.80202C4.13693 6.85062 4.09434 6.9124 4.06851 6.98176C3.56844 8.23433 3.9785 8.9484 2.03666 10.9206C1.39409 11.5814 1 12.5017 1 13.5094C1 15.4974 2.55896 17.1281 4.48317 17.1281C6.40738 17.1281 7.95252 15.4974 7.95252 13.5094C7.95252 12.5017 7.55843 11.5814 6.91587 10.9206C4.97402 8.9484 5.38409 8.23433 4.88401 6.98176C4.84687 6.88381 4.77661 6.80219 4.68559 6.75128C4.59457 6.70036 4.48863 6.6834 4.38642 6.70339ZM20.4339 6.70339C20.3621 6.71952 20.2954 6.75341 20.2399 6.80202C20.1844 6.85062 20.1418 6.9124 20.116 6.98176C19.6159 8.23434 20.026 8.9484 18.0841 10.9206C17.4416 11.5814 17.0475 12.5017 17.0475 13.5094C17.0475 15.4974 18.5926 17.1281 20.5168 17.1281C22.441 17.1281 24 15.4974 24 13.5094C24 12.5017 23.6059 11.5814 22.9633 10.9206C21.0215 8.9484 21.4316 8.23433 20.9315 6.98176C20.8943 6.88381 20.8241 6.80219 20.7331 6.75128C20.642 6.70036 20.5361 6.6834 20.4339 6.70339ZM4.48317 8.76328C4.70816 9.48853 5.10709 10.3556 6.28005 11.5469C6.76169 12.0422 7.06791 12.7348 7.06791 13.5094C7.06791 15.036 5.91038 16.2373 4.48317 16.2373C3.05597 16.2373 1.88462 15.036 1.88462 13.5094C1.88462 12.7348 2.19083 12.0422 2.67248 11.5469C3.8477 10.3533 4.25856 9.48926 4.48317 8.76328ZM20.5168 8.76328C20.7414 9.48926 21.1523 10.3533 22.3275 11.5469C22.8092 12.0422 23.1154 12.7348 23.1154 13.5094C23.1154 15.036 21.944 16.2373 20.5168 16.2373C19.0896 16.2373 17.9321 15.036 17.9321 13.5094C17.9321 12.7348 18.2383 12.0422 18.72 11.5469C19.8929 10.3556 20.2918 9.48853 20.5168 8.76328Z" fill="#65BA7F" stroke="#65BA7F" stroke-width="0.4"/>
</svg>
