<svg width="20" height="23" viewBox="0 0 20 23" fill="none" xmlns="http://www.w3.org/2000/svg">
<path d="M19.6575 14.6939L17.6484 15.219L15.5251 13.9862L17.7854 13.3925L17.4658 12.1597L13.9726 13.0957L11.2785 11.5432L13.9726 9.99072L17.4658 10.9268L17.7854 9.69392L15.5251 9.10031L17.6484 7.86744L19.6575 8.39255L20 7.15967L18.3562 6.72588L18.79 5.08205L17.5571 4.73958L17.0091 6.74871L14.8858 7.98159L15.5023 5.72132L14.2466 5.40168L13.3333 8.89483L10.6393 10.4245V7.34232L13.1963 4.78524L12.3059 3.872L10.6393 5.51584V3.07292L12.1005 1.61173L11.21 0.698486L10 1.90853L8.78995 0.698486L7.89954 1.61173L9.36073 3.07292V5.51584L7.69406 3.872L6.80365 4.78524L9.36073 7.34232V10.4245L6.66667 8.89483L5.75342 5.40168L4.49772 5.72132L5.11416 7.98159L2.99087 6.74871L2.44292 4.73958L1.21005 5.08205L1.64384 6.72588L0 7.15967L0.342466 8.39255L2.3516 7.86744L4.47488 9.10031L2.21461 9.69392L2.53425 10.9268L6.0274 9.99072L8.72146 11.5432L6.0274 13.0957L2.53425 12.1597L2.21461 13.3925L4.47488 13.9862L2.3516 15.219L0.342466 14.6939L0 15.9268L1.64384 16.3606L1.21005 18.0044L2.44292 18.3469L2.99087 16.3378L5.11416 15.1049L4.49772 17.3652L5.75342 17.6848L6.66667 14.1916L9.36073 12.662V15.7441L6.80365 18.3012L7.69406 19.2145L9.36073 17.5706V20.0136L7.89954 21.4747L8.78995 22.388L10 21.1779L11.21 22.388L12.1005 21.4747L10.6393 20.0136V17.5706L12.3059 19.2145L13.1963 18.3012L10.6393 15.7441V12.662L13.3333 14.1916L14.2466 17.6848L15.5023 17.3652L14.8858 15.1049L17.0091 16.3378L17.5571 18.3469L18.79 18.0044L18.3562 16.3606L20 15.9268L19.6575 14.6939Z" fill="#65BA7F"/>
</svg>
