<svg width="22" height="22" viewBox="0 0 22 22" fill="none" xmlns="http://www.w3.org/2000/svg">
<path d="M11 16.5186C7.95699 16.5186 5.48136 14.043 5.48136 11C5.48136 7.95699 7.95699 5.48136 11 5.48136C14.043 5.48136 16.5186 7.95699 16.5186 11C16.5186 14.043 14.043 16.5186 11 16.5186ZM11 6.67458C8.61505 6.67458 6.67458 8.61505 6.67458 11C6.67458 13.3849 8.61505 15.3254 11 15.3254C13.3849 15.3254 15.3254 13.3849 15.3254 11C15.3254 8.61505 13.3849 6.67458 11 6.67458ZM11.5966 2.64746V0.59661C11.5966 0.267281 11.3293 0 11 0C10.6707 0 10.4034 0.267281 10.4034 0.59661V2.64746C10.4034 2.97679 10.6707 3.24407 11 3.24407C11.3293 3.24407 11.5966 2.97679 11.5966 2.64746ZM11.5966 21.4034V19.3525C11.5966 19.0232 11.3293 18.7559 11 18.7559C10.6707 18.7559 10.4034 19.0232 10.4034 19.3525V21.4034C10.4034 21.7327 10.6707 22 11 22C11.3293 22 11.5966 21.7327 11.5966 21.4034ZM3.24407 11C3.24407 10.6707 2.97679 10.4034 2.64746 10.4034H0.59661C0.267281 10.4034 0 10.6707 0 11C0 11.3293 0.267281 11.5966 0.59661 11.5966H2.64746C2.97679 11.5966 3.24407 11.3293 3.24407 11ZM22 11C22 10.6707 21.7327 10.4034 21.4034 10.4034H19.3525C19.0232 10.4034 18.7559 10.6707 18.7559 11C18.7559 11.3293 19.0232 11.5966 19.3525 11.5966H21.4034C21.7327 11.5966 22 11.3293 22 11ZM3.9782 18.8654L5.42826 17.4153C5.66123 17.1824 5.66123 16.8047 5.42826 16.5717C5.19558 16.3388 4.81733 16.3388 4.58465 16.5717L3.13459 18.0218C2.90161 18.2548 2.90161 18.6324 3.13459 18.8654C3.25093 18.982 3.40366 19.0402 3.55639 19.0402C3.70913 19.0402 3.86186 18.982 3.9782 18.8654ZM17.4153 5.42826L18.8654 3.9782C19.0984 3.74522 19.0984 3.36757 18.8654 3.13459C18.6324 2.90161 18.2548 2.90161 18.0218 3.13459L16.5717 4.58465C16.3388 4.81763 16.3388 5.19528 16.5717 5.42826C16.6884 5.5449 16.8408 5.60307 16.9935 5.60307C17.1463 5.60307 17.2987 5.5449 17.4153 5.42826ZM5.42826 5.42826C5.66123 5.19528 5.66123 4.81763 5.42826 4.58465L3.9782 3.13459C3.74552 2.90161 3.36727 2.90161 3.13459 3.13459C2.90161 3.36757 2.90161 3.74522 3.13459 3.9782L4.58465 5.42826C4.70099 5.5449 4.85372 5.60307 5.00645 5.60307C5.15919 5.60307 5.31192 5.5449 5.42826 5.42826ZM18.8654 18.8654C19.0984 18.6324 19.0984 18.2548 18.8654 18.0218L17.4153 16.5717C17.1824 16.3388 16.8047 16.3388 16.5717 16.5717C16.3388 16.8047 16.3388 17.1824 16.5717 17.4153L18.0218 18.8654C18.1384 18.982 18.2909 19.0402 18.4436 19.0402C18.5963 19.0402 18.7491 18.982 18.8654 18.8654Z" fill="#65BA7F"/>
</svg>
