<svg width="20" height="24" viewBox="0 0 20 24" fill="none" xmlns="http://www.w3.org/2000/svg">
<path d="M12.9365 9.88937L8.41699 13.5397L6.56285 11.3669C6.51036 11.3195 6.44237 11.293 6.37168 11.2923C6.301 11.2916 6.23249 11.3168 6.17907 11.3631C6.12565 11.4094 6.091 11.4736 6.08165 11.5437C6.0723 11.6137 6.08888 11.6848 6.12829 11.7435L8.15625 14.1191L8.2142 14.1771H8.56185L13.2841 10.3529C13.3145 10.3282 13.3398 10.2977 13.3585 10.2632C13.3771 10.2287 13.3888 10.1909 13.3928 10.1519C13.3969 10.1129 13.3932 10.0734 13.382 10.0359C13.3708 9.99827 13.3523 9.96326 13.3276 9.93282C13.3028 9.90239 13.2723 9.87712 13.2379 9.85847C13.2034 9.83981 13.1655 9.82813 13.1265 9.82409C13.0875 9.82006 13.0481 9.82375 13.0105 9.83495C12.9729 9.84615 12.9379 9.86464 12.9075 9.88937H12.9365Z" fill="#65BA7F" stroke="#65BA7F" stroke-width="0.7"/>
<path d="M9.981 1.02419C9.94444 1.00823 9.90499 1 9.86511 1C9.82523 1 9.78578 1.00823 9.74923 1.02419L2.97004 3.86334C2.3855 4.10481 1.88604 4.51475 1.53522 5.04098C1.1844 5.56721 0.998096 6.18592 1.00001 6.81837V14.0611C1.00001 18.8992 4.85314 22.9552 9.60437 23.1H9.86511C12.2113 23.1 14.4618 22.17 16.1235 20.5137C17.7852 18.8575 18.7225 16.61 18.7302 14.2639V6.81837C18.7321 6.18592 18.5458 5.56721 18.195 5.04098C17.8442 4.51475 17.3447 4.10481 16.7602 3.86334L9.981 1.02419ZM18.1508 6.81837V14.2639C18.1475 15.3718 17.922 16.4679 17.4876 17.4871C17.0533 18.5064 16.419 19.4282 15.6221 20.198C14.8253 20.9678 13.8822 21.57 12.8486 21.969C11.8149 22.3679 10.7118 22.5555 9.60437 22.5206C5.17182 22.3757 1.57943 18.5806 1.57943 14.0611V6.81837C1.57895 6.30525 1.72988 5.80339 2.01332 5.37566C2.29676 4.94792 2.7001 4.61333 3.17283 4.41378L9.86511 1.6036L16.5574 4.38481C17.0347 4.58625 17.4412 4.92531 17.725 5.35874C18.0088 5.79218 18.157 6.30033 18.1508 6.81837Z" fill="#65BA7F" stroke="#65BA7F" stroke-width="0.7"/>
</svg>
